<svg xmlns="http://www.w3.org/2000/svg" xmlns:xlink="http://www.w3.org/1999/xlink" width="292.991" height="329.887" viewBox="0 0 292.991 329.887">
  <defs>
    <clipPath id="clip-path">
      <rect id="Rectangle_11" data-name="Rectangle 11" width="292.991" height="329.887" fill="none"/>
    </clipPath>
  </defs>
  <g id="blood-radiation-icon" clip-path="url(#clip-path)">
    <path id="Path_14" data-name="Path 14" d="M83.125,329.887c-5.881-1.476-11.386-3.641-15.659-8.214-5.364-5.742-7.338-12.653-7.331-20.34q.042-41.548.011-83.1V214.55c-.349-.284-.5-.516-.674-.532-8.7-.833-11.653-4.067-11.662-12.816,0-3.838,0-7.675,0-11.885H44.05c-10.846,0-21.691.027-32.536-.01C3.87,189.279.008,185.4.007,177.8q-.015-69.087,0-138.174c0-7.7,3.726-11.5,11.412-11.556,8.59-.062,17.181-.016,25.772-.017h3.961c0-3.584-.013-6.875,0-10.167C41.206,6.63,47.733.071,58.924.033,63.864.016,68.8-.041,73.742.05c9.614.177,16.319,6.9,16.513,16.517.073,3.634.012,7.27.012,11.249,1.342.087,2.469.223,3.6.225,8.59.019,17.181-.02,25.772.02,8.1.039,11.793,3.763,11.794,11.848q.011,68.765,0,137.53c0,8.046-3.785,11.852-11.82,11.87-11.168.025-22.336.006-33.5.007H82.162c0,3.571,0,6.855,0,10.139,0,10.81-1.726,12.933-12.347,14.861v3.425q0,41.548,0,83.1c0,12.9,6.5,19.385,19.407,19.377a71.385,71.385,0,0,0,7.4-.148c8.913-.934,14.889-7.941,14.908-17.53q.068-34.624.012-69.248c0-9.339,3.1-17.216,10.732-22.968a25.365,25.365,0,0,1,13.991-5.091c7.09-.441,14.256-.879,20.875,2.268,10.58,5.031,15.5,13.782,15.523,25.33.053,22.76.013,45.521.017,68.281,0,12.551,6.518,19.1,18.993,19.111,1.5,0,3.007.006,4.51,0,11.366-.05,18.244-6.869,18.267-18.278.044-21.472.013-42.945.014-64.417,0-11.165-.068-22.332.058-33.5a4,4,0,0,0-2.547-4.194,150.445,150.445,0,0,1-37.6-26.238c-14.205-13.8-24.873-29.656-29.016-49.442-3.845-18.359,2.59-36.367,16.892-46.1C179.7,66.186,204.544,70.8,216.6,88.154c.777,1.118,1.581,2.218,2.519,3.529,2.294-2.866,4.191-5.579,6.427-7.976,20.221-21.668,57.214-13.448,66.408,14.715.949,2.905-.023,5.491-2.436,6.489-2.591,1.071-5.35-.018-6.489-3.045-2.494-6.631-6.326-12.111-12.343-16.005a30.082,30.082,0,0,0-41.27,8.367c-.42.623-.823,1.258-1.263,1.867-4.918,6.807-13.352,6.817-17.946-.217-4.089-6.262-9.366-10.862-16.47-13.226-19.577-6.511-39.477,7.944-39.68,28.872a59.323,59.323,0,0,0,3.973,21.568c6.11-1.231,12.017-2.746,18.018-3.567,16.11-2.2,31.42.223,45.528,8.726,17.388,10.479,35.375,10.341,53.7,2.846a5.93,5.93,0,0,0,3.033-2.908c1.718-4.374,3.105-8.88,4.585-13.346.3-.913.4-1.894.7-2.807.949-2.866,3.293-4.193,5.993-3.45a4.82,4.82,0,0,1,3.286,5.837,79.841,79.841,0,0,1-8.983,24.322c-10.5,18.367-25.89,31.858-43.385,43.184a156.763,156.763,0,0,1-13.685,7.807c-2.155,1.1-2.745,2.408-2.739,4.73.077,32.209.039,64.417.062,96.626.006,7.79-1.93,14.82-7.409,20.638-4.294,4.56-9.8,6.715-15.692,8.158h-14.82a1.841,1.841,0,0,0-.554-.312c-13.663-2.032-23.047-13.7-22.728-28.308.333-15.227.074-30.468.074-45.7,0-7.832.065-15.665-.019-23.5-.1-9.612-6.059-16.255-15.608-17.209a53.05,53.05,0,0,0-10.6.009c-9.38.959-15.271,7.5-15.557,16.96-.078,2.572-.016,5.149-.016,7.724,0,20.813-.05,41.627.025,62.441.027,7.525-2.154,14.135-7.287,19.687-4.328,4.68-9.948,6.886-16.011,8.206ZM121.6,109.731V37.884c-1.3-.058-2.447-.152-3.595-.154q-13.206-.019-26.414-.009c-8.565,0-10.98-2.392-10.984-10.839,0-3.328.061-6.657-.02-9.983-.108-4.5-2.528-7.061-6.953-7.168q-7.888-.189-15.783,0c-4.465.1-6.886,2.614-7.009,7.1-.088,3.218-.022,6.441-.023,9.662,0,9.331-1.924,11.23-11.38,11.232q-13.045,0-26.091.008c-1.14,0-2.279.106-3.54.169v71.848H23.932v-3.672c0-12.99-.023-25.98.012-38.97.015-5.48,3.05-9.375,7.948-9.549,7.4-.262,14.815-.181,22.221-.05a4.847,4.847,0,0,1,5.094,5.078c-.165,2.644-2.169,4.445-5.309,4.49-5.582.079-11.166.019-16.75.039-1.129,0-2.257.1-3.265.145v89.685H97.6V67.107H93.908c-5.583-.007-11.168.056-16.749-.052a4.716,4.716,0,0,1-4.941-4.5,4.908,4.908,0,0,1,4.476-5.009,16.921,16.921,0,0,1,2.569-.1c3.436-.01,6.876.1,10.307-.023,16.98-.632,18.359,1.562,17.962,18.1-.244,10.193-.045,20.4-.045,30.6v3.614Zm147.1,44.2a17.576,17.576,0,0,0-1.933.166c-17.372,4.154-33.874,2.115-49.273-7.132a59.284,59.284,0,0,0-37.012-8.278c-6.094.58-12.1,2.113-19.165,3.4,4.235,5.834,7.463,10.919,11.319,15.475,12.163,14.375,27.221,25.076,43.779,33.836,2.2,1.163,3.927,1.195,5.922-.1,8.454-5.466,17.169-10.564,25.333-16.43A97.639,97.639,0,0,0,268.7,153.934m-161.212-34.15v3.6q0,16.565-.006,33.132c-.014,6.926-3.348,10.282-10.2,10.3-7.935.019-15.871,0-23.807.012-1.133,0-2.265.1-3.422.149V179.4h51.472V119.783Zm-97.635.006v59.678H59.88V166.818c-8.725,0-17.185.012-25.646,0-6.916-.013-10.284-3.338-10.3-10.191q-.029-16.73-.006-33.461V119.79ZM72.26,189.529H57.732v14.554H72.26Z" transform="translate(0 0)"/>
  </g>
</svg>
