<svg xmlns="http://www.w3.org/2000/svg" width="23" height="23.001" viewBox="0 0 23 23.001">
  <path id="close-icon" d="M-2685.9-5164.779a1.618,1.618,0,0,1,.07-2.283l8.78-8.78-8.78-8.78a1.615,1.615,0,0,1-.07-2.281,1.617,1.617,0,0,1,2.282.068l8.78,8.781,8.78-8.779a1.615,1.615,0,0,1,2.281-.07,1.614,1.614,0,0,1-.07,2.281l-8.779,8.78,8.779,8.78a1.617,1.617,0,0,1,.07,2.283,1.616,1.616,0,0,1-2.281-.07l-8.78-8.78-8.78,8.78a1.71,1.71,0,0,1-1.206.509A1.512,1.512,0,0,1-2685.9-5164.779Z" transform="translate(2686.342 5187.342)" fill="#b1a1a1"/>
</svg>
