<svg id="rayblood-logo" xmlns="http://www.w3.org/2000/svg" xmlns:xlink="http://www.w3.org/1999/xlink" width="160" height="39" viewBox="0 0 160 39">
  <defs>
    <clipPath id="clip-path">
      <rect id="Rectangle_2" data-name="Rectangle 2" width="160" height="39" fill="none"/>
    </clipPath>
  </defs>
  <g id="rayblood-logo-2" data-name="rayblood-logo" clip-path="url(#clip-path)">
    <path id="Path_1" data-name="Path 1" d="M31.959,14.146a18.133,18.133,0,0,0,0,36.26,18.133,18.133,0,0,0,0-36.26m0,27.826a9.7,9.7,0,1,1,9.525-9.7,9.612,9.612,0,0,1-9.525,9.7" transform="translate(-12.802 -12.776)" fill="#fff"/>
    <path id="Path_2" data-name="Path 2" d="M2.692,7.763H0V0H7.626V2.74H2.692Z" transform="translate(0 0)"/>
    <path id="Path_3" data-name="Path 3" d="M330.19,330.326h-7.627v-2.74H327.5v-5.023h2.692Z" transform="translate(-291.876 -291.326)"/>
    <path id="Path_4" data-name="Path 4" d="M330.19,7.763H327.5V2.74h-4.936V0h7.627Z" transform="translate(-291.876 0)"/>
    <path id="Path_5" data-name="Path 5" d="M7.626,330.326H0v-7.763H2.692v5.023H7.626Z" transform="translate(0 -291.326)"/>
    <path id="Path_6" data-name="Path 6" d="M581.968,95.476a7.978,7.978,0,0,1,4.487,1.044,5.254,5.254,0,0,1-2.631,9.362l5.874,8.4H587.2l-5.624-8.235h-.527v8.235H579V95.476Zm-.915,8.714h1.3c2.549,0,4.072-1.241,4.072-3.441a2.937,2.937,0,0,0-1.468-2.764,5.187,5.187,0,0,0-2.659-.536h-1.247Z" transform="translate(-523.92 -86.23)"/>
    <path id="Path_7" data-name="Path 7" d="M707.323,166.233h2v11.7h-2V176.3a4.821,4.821,0,0,1-3.934,1.974c-2.909,0-5.6-2.087-5.6-6.2,0-4.033,2.659-6.12,5.6-6.12a4.73,4.73,0,0,1,3.934,1.945Zm-7.48,5.838c0,2.509,1.385,4.4,3.768,4.4,2.438,0,3.824-2.059,3.824-4.371,0-3.018-2.05-4.343-3.824-4.343-1.968,0-3.768,1.466-3.768,4.315" transform="translate(-631.41 -149.88)"/>
    <path id="Path_8" data-name="Path 8" d="M846.3,179.464l-5.292-10.6h2.273l4.072,8.376,3.741-8.376h2.216l-8.45,18.19h-2.216Z" transform="translate(-761.002 -152.507)"/>
    <path id="Path_9" data-name="Path 9" d="M999.313,95.476a7.174,7.174,0,0,1,4.515,1.184,4.93,4.93,0,0,1,1.718,3.892,4.022,4.022,0,0,1-2.078,3.694,4.31,4.31,0,0,1,2.41,1.185,4.851,4.851,0,0,1,1.33,3.525,5.073,5.073,0,0,1-1.58,3.808,6.7,6.7,0,0,1-4.682,1.523h-6.205V95.476Zm-.97,7.812h1.025c.553,0,2.8-.056,2.8-2.454,0-1.72-1.3-2.369-2.771-2.369h-1.053Zm0,8.009h1.551a4.847,4.847,0,0,0,2.466-.507,2.435,2.435,0,0,0,1.136-2.172,2.256,2.256,0,0,0-1.356-2.143,5.782,5.782,0,0,0-2.466-.367h-1.33Z" transform="translate(-900.108 -86.23)"/>
    <rect id="Rectangle_1" data-name="Rectangle 1" width="3.379" height="20.559" transform="translate(109.368 7.497)"/>
    <path id="Path_10" data-name="Path 10" d="M1224.215,161.262a6.659,6.659,0,0,1,0,9.56,7.693,7.693,0,0,1-9.7,0,6.659,6.659,0,0,1,0-9.56,7.69,7.69,0,0,1,9.7,0m-1.468,4.794a3.38,3.38,0,1,0-3.38,3.441,3.379,3.379,0,0,0,3.38-3.441" transform="translate(-1097.147 -144.091)"/>
    <path id="Path_11" data-name="Path 11" d="M1389.579,161.262a6.662,6.662,0,0,1,0,9.56,7.695,7.695,0,0,1-9.7,0,6.662,6.662,0,0,1,0-9.56,7.692,7.692,0,0,1,9.7,0m-1.469,4.794a3.38,3.38,0,1,0-3.379,3.441,3.378,3.378,0,0,0,3.379-3.441" transform="translate(-1246.779 -144.091)"/>
    <path id="Path_12" data-name="Path 12" d="M1553.031,77.418h3.381V97.977h-3.381V96.4a4.276,4.276,0,0,1-3.684,1.974c-3.686,0-6.122-2.933-6.122-6.514,0-3.61,2.409-6.486,5.955-6.486a4.317,4.317,0,0,1,3.851,1.974Zm-6.317,14.439a3.327,3.327,0,1,0,3.325-3.441,3.317,3.317,0,0,0-3.325,3.441" transform="translate(-1396.411 -69.921)"/>
  </g>
</svg>
