<svg id="rayblood-logo-grey" xmlns="http://www.w3.org/2000/svg" xmlns:xlink="http://www.w3.org/1999/xlink" width="91" height="22" viewBox="0 0 91 22">
  <defs>
    <clipPath id="clip-path">
      <rect id="Rectangle_2" data-name="Rectangle 2" width="91" height="22" fill="#939090"/>
    </clipPath>
  </defs>
  <g id="rayblood-logo" clip-path="url(#clip-path)">
    <path id="Path_1" data-name="Path 1" d="M24.278,14.146a10.228,10.228,0,1,0,10.13,10.227,10.179,10.179,0,0,0-10.13-10.227m0,15.7A5.47,5.47,0,1,1,29.7,24.373a5.444,5.444,0,0,1-5.417,5.469" transform="translate(-13.382 -13.373)" fill="#939090"/>
    <path id="Path_2" data-name="Path 2" d="M1.531,4.379H0V0H4.338V1.545H1.531Z" transform="translate(0 0)" fill="#939090"/>
    <path id="Path_3" data-name="Path 3" d="M326.9,326.942h-4.338V325.4h2.807v-2.833H326.9Z" transform="translate(-305.11 -304.942)" fill="#939090"/>
    <path id="Path_4" data-name="Path 4" d="M326.9,4.379H325.37V1.545h-2.807V0H326.9Z" transform="translate(-305.11 0)" fill="#939090"/>
    <path id="Path_5" data-name="Path 5" d="M4.337,326.942H0v-4.379H1.531V325.4H4.337Z" transform="translate(0 -304.942)" fill="#939090"/>
    <path id="Path_6" data-name="Path 6" d="M580.689,95.476a4.568,4.568,0,0,1,2.552.589,2.957,2.957,0,0,1-1.5,5.281l3.341,4.741h-1.418l-3.2-4.645h-.3v4.645H579V95.476Zm-.52,4.916h.741c1.449,0,2.316-.7,2.316-1.941a1.653,1.653,0,0,0-.835-1.559,2.971,2.971,0,0,0-1.512-.3h-.709Z" transform="translate(-547.675 -90.26)" fill="#939090"/>
    <path id="Path_7" data-name="Path 7" d="M703.214,166.11h1.135v6.6h-1.135v-.923a2.749,2.749,0,0,1-2.237,1.114,3.49,3.49,0,0,1,0-6.952,2.7,2.7,0,0,1,2.237,1.1Zm-4.254,3.293a2.2,2.2,0,0,0,2.143,2.482,2.25,2.25,0,0,0,2.175-2.466,2.227,2.227,0,0,0-2.175-2.45,2.186,2.186,0,0,0-2.143,2.434" transform="translate(-660.038 -156.885)" fill="#939090"/>
    <path id="Path_8" data-name="Path 8" d="M844.02,174.842l-3.01-5.982H842.3l2.316,4.725,2.127-4.725h1.26L843.2,179.121h-1.26Z" transform="translate(-795.506 -159.635)" fill="#939090"/>
    <path id="Path_9" data-name="Path 9" d="M997.342,95.476a4.106,4.106,0,0,1,2.568.668,2.771,2.771,0,0,1,.977,2.2,2.267,2.267,0,0,1-1.182,2.084,2.459,2.459,0,0,1,1.371.668,2.723,2.723,0,0,1,.756,1.988,2.85,2.85,0,0,1-.9,2.148,3.833,3.833,0,0,1-2.663.859h-3.529V95.476Zm-.552,4.407h.583a1.4,1.4,0,0,0,1.592-1.384c0-.97-.741-1.336-1.576-1.336h-.6Zm0,4.518h.882a2.776,2.776,0,0,0,1.4-.286,1.37,1.37,0,0,0,.646-1.225,1.271,1.271,0,0,0-.771-1.209,3.314,3.314,0,0,0-1.4-.207h-.756Z" transform="translate(-940.919 -90.26)" fill="#939090"/>
    <rect id="Rectangle_1" data-name="Rectangle 1" width="1.922" height="11.597" transform="translate(62.203 4.229)" fill="#939090"/>
    <path id="Path_10" data-name="Path 10" d="M1219.161,160.512a3.736,3.736,0,0,1,0,5.393,4.4,4.4,0,0,1-5.515,0,3.735,3.735,0,0,1,0-5.393,4.4,4.4,0,0,1,5.515,0m-.835,2.7a1.922,1.922,0,1,0-1.923,1.941,1.913,1.913,0,0,0,1.923-1.941" transform="translate(-1146.891 -150.826)" fill="#939090"/>
    <path id="Path_11" data-name="Path 11" d="M1384.525,160.512a3.737,3.737,0,0,1,0,5.393,4.4,4.4,0,0,1-5.515,0,3.737,3.737,0,0,1,0-5.393,4.4,4.4,0,0,1,5.515,0m-.836,2.7a1.922,1.922,0,1,0-1.922,1.941,1.913,1.913,0,0,0,1.922-1.941" transform="translate(-1303.307 -150.826)" fill="#939090"/>
    <path id="Path_12" data-name="Path 12" d="M1548.8,77.418h1.923v11.6H1548.8v-.891a2.438,2.438,0,0,1-2.1,1.114,3.48,3.48,0,0,1-3.482-3.675,3.43,3.43,0,0,1,3.387-3.659,2.463,2.463,0,0,1,2.19,1.114Zm-3.593,8.145a1.892,1.892,0,1,0,1.891-1.941,1.878,1.878,0,0,0-1.891,1.941" transform="translate(-1459.724 -73.189)" fill="#939090"/>
  </g>
</svg>
